<svg width="39" height="39" viewBox="0 0 39 39" fill="none" xmlns="http://www.w3.org/2000/svg">
<path d="M38.0781 0.9646H0.921875C0.751971 0.9646 0.589025 1.03128 0.468885 1.14997C0.348744 1.26867 0.28125 1.42965 0.28125 1.59751V32.6099C0.28125 32.7778 0.348744 32.9388 0.468885 33.0575C0.589025 33.1762 0.751971 33.2428 0.921875 33.2428H25.9389C26.1046 34.8573 26.8916 36.3473 28.1375 37.4049C29.3833 38.4624 30.9927 39.0068 32.6332 38.9256C34.2737 38.8444 35.82 38.1437 36.9525 36.9683C38.085 35.7929 38.7173 34.2327 38.7188 32.6099V1.59751C38.7188 1.42965 38.6513 1.26867 38.5311 1.14997C38.411 1.03128 38.248 0.9646 38.0781 0.9646ZM32.3125 37.6732C31.2989 37.6732 30.308 37.3762 29.4652 36.8199C28.6224 36.2635 27.9655 35.4727 27.5776 34.5476C27.1897 33.6224 27.0882 32.6043 27.286 31.6221C27.4837 30.64 27.9718 29.7378 28.6886 29.0297C29.4053 28.3216 30.3185 27.8393 31.3127 27.644C32.3068 27.4486 33.3373 27.5489 34.2738 27.9321C35.2102 28.3153 36.0106 28.9643 36.5738 29.7969C37.1369 30.6296 37.4375 31.6085 37.4375 32.6099C37.436 33.9523 36.8955 35.2393 35.9347 36.1885C34.9739 37.1377 33.6713 37.6717 32.3125 37.6732ZM26.773 29.4454H20.7812V8.55948H34.875V26.8131C33.4336 26.1878 31.8092 26.1106 30.3138 26.5965C28.8183 27.0823 27.5574 28.0969 26.773 29.4454ZM37.4375 28.8289C37.073 28.3481 36.6417 27.9205 36.1562 27.5587V7.92657C36.1562 7.75872 36.0888 7.59773 35.9686 7.47904C35.8485 7.36035 35.6855 7.29367 35.5156 7.29367H20.1406C19.9707 7.29367 19.8078 7.36035 19.6876 7.47904C19.5675 7.59773 19.5 7.75872 19.5 7.92657V30.0783C19.5 30.2462 19.5675 30.4071 19.6876 30.5258C19.8078 30.6445 19.9707 30.7112 20.1406 30.7112H26.2016C26.07 31.1231 25.982 31.5473 25.9389 31.977H1.5625V6.02785H37.4375V28.8289ZM37.4375 4.76204H1.5625V2.23041H37.4375V4.76204Z" fill="#4628A4"/>
</svg>
