<svg width="33" height="20" viewBox="0 0 33 20" fill="none" xmlns="http://www.w3.org/2000/svg">
<path d="M29.5625 19.792H20.8587C20.5631 19.792 20.3005 19.6045 20.2056 19.3274L19.602 17.5343C19.5071 17.264 19.2417 17.0751 18.9475 17.0751H14.0525C13.7582 17.0751 13.4942 17.264 13.3939 17.5451L12.793 19.3288C12.6995 19.6045 12.4369 19.792 12.1412 19.792H3.43749C1.54137 19.792 -7.62939e-06 18.2678 -7.62939e-06 16.3959V4.17001C-7.62939e-06 2.29809 1.54137 0.773926 3.43749 0.773926H29.5625C31.4586 0.773926 33 2.29809 33 4.17001V16.3959C33 18.2678 31.4586 19.792 29.5625 19.792V19.792ZM21.3537 18.4336H29.5625C30.6996 18.4336 31.625 17.5193 31.625 16.3959V4.17001C31.625 3.04659 30.6996 2.13236 29.5625 2.13236H3.43749C2.30037 2.13236 1.37499 3.04659 1.37499 4.17001V16.3959C1.37499 17.5193 2.30037 18.4336 3.43749 18.4336H11.6462L12.0931 17.105C12.3901 16.2709 13.1752 15.7167 14.0525 15.7167H18.9489C19.8261 15.7167 20.6112 16.2709 20.9041 17.0955L21.3537 18.4336Z" fill="#00329B"/>
</svg>
