<svg width="20" height="33" viewBox="0 0 20 33" fill="none" xmlns="http://www.w3.org/2000/svg">
<path d="M16.9062 0.223633H3.09375C2.53039 0.224362 1.99032 0.445782 1.59196 0.839337C1.19361 1.23289 0.969488 1.76646 0.96875 2.32303V30.6649C0.969488 31.2215 1.19361 31.755 1.59196 32.1486C1.99032 32.5421 2.53039 32.7636 3.09375 32.7643H16.9062C17.4696 32.7636 18.0097 32.5421 18.408 32.1486C18.8064 31.755 19.0305 31.2215 19.0312 30.6649V2.32303C19.0305 1.76646 18.8064 1.23289 18.408 0.839337C18.0097 0.445782 17.4696 0.224362 16.9062 0.223633ZM12.4862 1.27333L12.1874 2.32303H7.75879L7.49316 1.27333H12.4862ZM17.9688 30.6649C17.9684 30.9432 17.8563 31.21 17.6571 31.4067C17.458 31.6035 17.1879 31.7142 16.9062 31.7146H3.09375C2.81207 31.7142 2.54203 31.6035 2.34286 31.4067C2.14368 31.21 2.03162 30.9432 2.03125 30.6649V2.32303C2.03162 2.04474 2.14368 1.77796 2.34286 1.58118C2.54203 1.38441 2.81207 1.2737 3.09375 1.27333H6.39746L6.82844 2.97516C6.85717 3.0887 6.92348 3.1895 7.01685 3.26154C7.11022 3.33357 7.22528 3.37271 7.34375 3.37273H12.5898C12.7056 3.37273 12.8182 3.33536 12.9105 3.26632C13.0028 3.19728 13.0698 3.10034 13.1012 2.99025L13.5899 1.27333H16.9062C17.1879 1.2737 17.458 1.38441 17.6571 1.58118C17.8563 1.77796 17.9684 2.04474 17.9688 2.32303V30.6649Z" fill="#BB3800"/>
</svg>
