<svg width="33" height="34" viewBox="0 0 33 34" fill="none" xmlns="http://www.w3.org/2000/svg">
<path d="M31.7197 16.1692L17.5987 2.21829C16.6069 1.23855 15.2885 0.69873 13.886 0.69873H3.00003C1.34543 0.69873 0 2.02795 0 3.66261V14.4175C0 15.8032 0.546399 17.1056 1.53809 18.0854L15.6592 32.0363C16.4729 32.8402 17.5994 33.3011 18.75 33.3011C19.9006 33.3011 21.027 32.8402 21.8408 32.0363L31.7197 22.2764C32.5334 21.4725 32.9999 20.3596 32.9999 19.2229C32.9999 18.0861 32.5335 16.9732 31.7197 16.1692ZM30.6592 21.2287L20.7803 30.9886C19.711 32.045 17.7891 32.045 16.7198 30.9886L2.59861 17.0375C1.89035 16.3378 1.49998 15.4073 1.49998 14.4174V3.66261C1.49998 2.8457 2.17308 2.18071 2.99995 2.18071H13.886C14.888 2.18071 15.8299 2.56638 16.5381 3.2661L30.6592 17.217C31.1939 17.7453 31.5 18.4761 31.5 19.2229C31.5 19.9696 31.1939 20.7004 30.6592 21.2287Z" fill="#5FC400"/>
</svg>
