<svg width="80" height="610" viewBox="0 0 80 610" fill="none" xmlns="http://www.w3.org/2000/svg">
<path d="M-366.591 0.394742C-420.452 -1.33151 -452.316 35.6128 -476.572 83.7334C-520.833 171.537 -535.967 276.494 -521.418 365.852C-506.868 455.21 -454.047 517.336 -401.364 554.563C-321.508 610.991 -300.59 612.6 -222.5 607.018C-165.503 602.944 -134.808 595.565 -68.8058 561.844C-2.80385 528.123 101.439 465.113 75.4221 374.546C54.8276 302.855 -87.879 282.313 -87.879 282.313C-87.879 282.313 -154.389 274.713 -194.359 243.749C-235.729 211.701 -261.937 128.037 -261.937 128.037C-261.937 128.037 -302.164 2.45965 -366.591 0.394742Z" fill="#08D3BB"/>
</svg>
